<svg width="188" height="131" viewBox="0 0 188 131" fill="none" xmlns="http://www.w3.org/2000/svg">
<path d="M188 113.102H0V113.196H188V113.102Z" fill="#EBEBEB"/>
<path d="M32.1781 116.682H24.3159V116.776H32.1781V116.682Z" fill="#EBEBEB"/>
<path d="M73.4441 115.663H64.3486V115.757H73.4441V115.663Z" fill="#EBEBEB"/>
<path d="M51.888 117.907H44.6726V118.001H51.888V117.907Z" fill="#EBEBEB"/>
<path d="M169.162 119.543H158.672V119.637H169.162V119.543Z" fill="#EBEBEB"/>
<path d="M153.912 116.776H145.779V116.87H153.912V116.776Z" fill="#EBEBEB"/>
<path d="M122.448 117.956H104.231V118.05H122.448V117.956Z" fill="#EBEBEB"/>
<path d="M15.6755 113.102H13.2916C17.308 103.809 19.3881 93.794 19.4049 83.6697C19.4217 73.5453 17.3749 63.5238 13.3894 54.2169H15.7695C19.6335 63.5545 21.6144 73.5635 21.5983 83.669C21.5822 93.7744 19.5693 103.777 15.6755 113.102Z" fill="#EBEBEB"/>
<path d="M32.7835 113.102H30.3997C34.416 103.809 36.4961 93.794 36.5129 83.6697C36.5298 73.5453 34.4829 63.5238 30.4974 54.2169H32.8775C36.7416 63.5545 38.7225 73.5635 38.7063 83.669C38.6902 93.7744 36.6774 103.777 32.7835 113.102Z" fill="#EBEBEB"/>
<path d="M46.733 85.9927C47.0295 95.3119 49.0236 104.499 52.6174 113.102H55.0013C51.2941 104.527 49.2341 95.3302 48.9289 85.9927H46.733Z" fill="#F5F5F5"/>
<path d="M29.625 85.9927C29.9215 95.3119 31.9156 104.499 35.5094 113.102H37.8932C34.186 104.527 32.126 95.3302 31.8208 85.9927H29.625Z" fill="#F5F5F5"/>
<path d="M47.5452 88.3239H22.9097C22.2914 88.3229 21.6986 88.0771 21.261 87.6402C20.8235 87.2034 20.5767 86.611 20.5747 85.9927C20.5757 85.3737 20.822 84.7804 21.2597 84.3427C21.6974 83.905 22.2907 83.6587 22.9097 83.6577H47.5452C48.1642 83.6587 48.7575 83.905 49.1952 84.3427C49.6328 84.7804 49.8792 85.3737 49.8801 85.9927C49.8782 86.611 49.6314 87.2034 49.1938 87.6402C48.7563 88.0771 48.1635 88.3229 47.5452 88.3239Z" fill="#E0E0E0"/>
<path d="M37.976 74.2877H25.8086C23.327 74.2877 20.6837 72.2573 19.9355 69.7757L15.7017 55.7359C14.9497 53.2543 16.371 51.2239 18.8526 51.2239H31.0087C33.4903 51.2239 36.1335 53.2543 36.8818 55.7359L41.1193 69.7757C41.8676 72.2573 40.45 74.2877 37.976 74.2877Z" fill="#E0E0E0"/>
<path d="M168.704 113.102H171.08C167.064 103.809 164.984 93.794 164.967 83.6697C164.95 73.5453 166.997 63.5238 170.982 54.2169H168.602C164.739 63.555 162.76 73.5643 162.777 83.6697C162.795 93.7752 164.809 103.778 168.704 113.102Z" fill="#EBEBEB"/>
<path d="M151.596 113.102H153.98C149.963 103.809 147.883 93.794 147.866 83.6697C147.85 73.5453 149.896 63.5238 153.882 54.2169H151.502C147.638 63.5545 145.657 73.5635 145.673 83.669C145.689 93.7744 147.702 103.777 151.596 113.102Z" fill="#EBEBEB"/>
<path d="M137.642 85.9927C137.346 95.3119 135.352 104.499 131.758 113.102H129.374C133.081 104.527 135.141 95.3302 135.446 85.9927H137.642Z" fill="#F5F5F5"/>
<path d="M154.75 85.9927C154.454 95.3119 152.46 104.499 148.866 113.102H146.482C150.189 104.527 152.249 95.3302 152.554 85.9927H154.75Z" fill="#F5F5F5"/>
<path d="M136.83 88.3239H161.469C162.087 88.3219 162.679 88.0756 163.116 87.6389C163.552 87.2021 163.799 86.6103 163.801 85.9927C163.8 85.3744 163.554 84.7816 163.117 84.344C162.68 83.9065 162.088 83.6597 161.469 83.6577H136.83C136.212 83.6597 135.619 83.9063 135.181 84.3438C134.744 84.7813 134.497 85.374 134.495 85.9927C134.498 86.6107 134.745 87.2025 135.183 87.6391C135.62 88.0758 136.212 88.3219 136.83 88.3239Z" fill="#E0E0E0"/>
<path d="M146.411 74.2877H158.567C161.048 74.2877 163.692 72.2573 164.44 69.7757L168.674 55.7359C169.426 53.2543 168.008 51.2239 165.526 51.2239H153.367C150.885 51.2239 148.242 53.2543 147.493 55.7359L143.256 69.7757C142.504 72.2573 143.929 74.2877 146.411 74.2877Z" fill="#E0E0E0"/>
<path d="M61.2054 67.1512H56.6934V113.102H59.2464L61.2054 67.1512Z" fill="#F5F5F5"/>
<path d="M121.704 67.1512H126.212V113.102H123.659L121.704 67.1512Z" fill="#F5F5F5"/>
<path d="M61.6564 64.7787H53.1324V110.113H61.6564V64.7787Z" fill="#E0E0E0"/>
<path d="M66.7588 64.7787H61.6603V107.146H66.7588V64.7787Z" fill="#EBEBEB"/>
<path d="M75.2789 64.7787H66.755V110.113H75.2789V64.7787Z" fill="#E0E0E0"/>
<path d="M80.3813 64.7787H75.2827V107.146H80.3813V64.7787Z" fill="#EBEBEB"/>
<path d="M88.9015 64.7787H80.3776V110.113H88.9015V64.7787Z" fill="#E0E0E0"/>
<path d="M94.0037 64.7787H88.9052V107.146H94.0037V64.7787Z" fill="#EBEBEB"/>
<path d="M102.524 64.7787H94V110.113H102.524V64.7787Z" fill="#E0E0E0"/>
<path d="M107.626 64.7787H102.528V107.146H107.626V64.7787Z" fill="#EBEBEB"/>
<path d="M116.146 64.7787H107.622V110.113H116.146V64.7787Z" fill="#E0E0E0"/>
<path d="M121.249 64.7787H116.15V107.146H121.249V64.7787Z" fill="#EBEBEB"/>
<path d="M129.769 64.7787H121.245V110.113H129.769V64.7787Z" fill="#E0E0E0"/>
<path d="M91.8267 95.1182L130.69 65.2788C130.793 65.2011 130.869 65.0928 130.906 64.9695C130.944 64.8462 130.942 64.7141 130.9 64.592C130.859 64.47 130.78 64.3642 130.674 64.2897C130.569 64.2152 130.443 64.1758 130.314 64.1772H52.5873C52.4584 64.1758 52.3323 64.2152 52.227 64.2897C52.1217 64.3642 52.0426 64.47 52.001 64.592C51.9593 64.7141 51.9572 64.8462 51.995 64.9695C52.0328 65.0928 52.1085 65.2011 52.2113 65.2788L91.0747 95.1182C91.1825 95.2011 91.3147 95.2461 91.4507 95.2461C91.5867 95.2461 91.7189 95.2011 91.8267 95.1182Z" fill="#F5F5F5"/>
<path d="M94.0001 130.083C134.263 130.083 166.903 128.177 166.903 125.826C166.903 123.476 134.263 121.57 94.0001 121.57C53.737 121.57 21.0974 123.476 21.0974 125.826C21.0974 128.177 53.737 130.083 94.0001 130.083Z" fill="#F5F5F5"/>
<path d="M72.7146 14.3084C69.7856 16.7223 66.9242 20.6139 68.6012 24.8364C70.2782 29.0589 81.0092 29.4837 83.2652 27.7466C86.198 25.4906 83.6074 15.4439 81.3213 15.3837C81.1483 11.6576 75.1624 12.2893 72.7146 14.3084Z" fill="#263238"/>
<path d="M68.6124 54.9728C68.6124 54.9728 69.7893 76.3822 71.0865 87.9743C71.2181 98.8595 73.7185 123.45 73.7185 123.45H76.4671C76.9295 111.249 80.3248 99.8559 78.0688 89.0948C83.3328 67.9636 79.727 54.9878 79.727 54.9878L68.6124 54.9728Z" fill="#FFB573"/>
<path d="M71.6053 54.9878C71.6053 54.9878 77.2641 78.736 78.8133 88.8504C80.4451 99.4761 82.8741 120.096 82.7613 123.442H85.1338C85.1338 123.442 89.1194 102.582 85.4309 89.2264C88.4727 59.1464 80.9677 55.0104 80.9677 55.0104L71.6053 54.9878Z" fill="#FFB573"/>
<path d="M58.0355 27.5211C57.8588 26.2389 55.5051 26.1299 55.5051 26.1299L54.3771 25.5621C54.1791 25.4409 53.9417 25.4013 53.7151 25.4519C53.4885 25.5024 53.2903 25.639 53.1626 25.8328L52.7866 26.457C52.6771 26.7027 52.6589 26.9794 52.7355 27.2372C52.812 27.4951 52.9781 27.7171 53.2039 27.8632L53.5461 28.1114C54.1282 28.5274 54.8169 28.7687 55.5314 28.807L56.5729 28.8634C56.8016 28.8766 57.0309 28.8485 57.2497 28.7807C57.5088 28.6992 57.7299 28.5269 57.8722 28.2955C58.0145 28.0641 58.0685 27.7891 58.0243 27.5211H58.0355Z" fill="#FFB573"/>
<path d="M70.4323 35.0222C70.2894 35.1689 70.2142 35.2403 70.1089 35.3343L69.8119 35.5975C69.6163 35.7629 69.4133 35.9171 69.214 36.0713C68.8079 36.3721 68.3943 36.6503 67.9695 36.9135C67.1168 37.4267 66.2211 37.8645 65.2923 38.222C63.4427 38.9416 61.479 39.3236 59.4944 39.35H59.3215C59.2308 39.3481 59.1404 39.3405 59.0507 39.3274C58.8741 39.3016 58.7012 39.2549 58.5356 39.1883C58.2568 39.0734 58.0018 38.9076 57.7836 38.6995C57.501 38.4219 57.2705 38.0959 57.1031 37.7369C56.8685 37.2285 56.6932 36.6949 56.5804 36.1465C56.381 35.2026 56.2553 34.2447 56.2044 33.2813C56.1026 31.4362 56.1403 29.5861 56.3172 27.7466C56.3382 27.541 56.434 27.3503 56.5864 27.2108C56.7388 27.0713 56.9372 26.9926 57.1438 26.9898C57.3504 26.987 57.5508 27.0603 57.7069 27.1957C57.8631 27.3311 57.9639 27.5191 57.9904 27.7241V27.7466C58.1935 29.4988 58.4266 31.2773 58.7424 32.9805C58.8817 33.8055 59.0738 34.6206 59.3177 35.4208C59.4148 35.7481 59.5485 36.0634 59.7163 36.3608C59.7839 36.4698 59.8516 36.5225 59.8215 36.4849C59.7718 36.431 59.7099 36.3898 59.6411 36.3645C59.5801 36.3369 59.5156 36.3179 59.4493 36.3081H59.3478C60.1561 36.2343 60.9579 36.1011 61.7467 35.9096C62.5283 35.7144 63.2948 35.4631 64.0403 35.1576C64.7826 34.8398 65.4981 34.4626 66.1797 34.0296C66.5219 33.819 66.8527 33.5972 67.1723 33.3603C67.3303 33.2437 67.4807 33.1234 67.6311 33.0031L67.8491 32.8226L68.0146 32.676L68.1123 32.5895C68.4402 32.2958 68.8699 32.1418 69.3097 32.1604C69.7495 32.1789 70.1647 32.3684 70.4667 32.6886C70.7688 33.0088 70.9338 33.4343 70.9267 33.8745C70.9196 34.3146 70.7408 34.7346 70.4285 35.0448L70.4323 35.0222Z" fill="#FFB573"/>
<path d="M72.2823 30.8486C69.3081 30.3523 66.1873 32.3751 64.5705 34.022C63.7358 36.5337 66.4092 39.5868 66.4092 39.5868C66.4092 39.5868 70.218 37.2481 71.5904 35.6501C72.9628 34.0521 73.9968 31.1343 72.2823 30.8486Z" fill="#E0E0E0"/>
<path d="M81.4942 54.702C81.4942 54.702 85.6904 57.6799 86.48 67.58C86.7958 71.4791 87.3636 87.0343 88.5592 93.7271C84.254 96.8027 71.3647 96.3816 69.3456 94.5843C69.9171 81.0483 64.7434 63.0943 68.4959 54.8374C74.7074 54.0741 81.4942 54.702 81.4942 54.702Z" fill="#263238"/>
<path opacity="0.2" d="M77.238 83.0938C77.2944 77.4049 76.4559 69.5766 73.9104 64.9368C74.779 70.7272 77.238 83.0938 77.238 83.0938Z" fill="black"/>
<path d="M66.5256 35.4358C66.5256 38.6581 63.9575 40.3501 66.864 42.8317C67.037 45.6141 67.24 50.5961 68.0935 55.1344C68.9771 56.3639 75.4368 56.2624 82.1484 54.8073C81.2723 50.9157 81.5957 44.5763 83.8931 35.9058C84.0154 35.4246 84.0371 34.9233 83.9568 34.4334C83.8764 33.9434 83.6957 33.4753 83.426 33.0585C83.1563 32.6416 82.8035 32.2849 82.3895 32.0107C81.9756 31.7366 81.5095 31.5509 81.0204 31.4652C80.4677 31.3675 79.8924 31.2772 79.2833 31.202C77.1842 30.8926 75.0657 30.7343 72.9439 30.7283C72.2596 30.7283 71.549 30.7734 70.8722 30.8185C69.6964 30.8912 68.5925 31.4091 67.785 32.2668C66.9775 33.1246 66.5272 34.2578 66.5256 35.4358Z" fill="#E0E0E0"/>
<path d="M80.237 41.0305L72.36 42.8143C72.0603 42.8822 71.8723 43.1802 71.9402 43.48L74.4905 54.7418C74.5584 55.0415 74.8564 55.2295 75.1562 55.1616L83.0332 53.3778C83.3329 53.3099 83.5209 53.0119 83.453 52.7121L80.9027 41.4503C80.8348 41.1506 80.5368 40.9626 80.237 41.0305Z" fill="#AE090E"/>
<path d="M73.7224 34.8831C73.7224 34.8831 72.4478 36.4096 71.395 36.7631L71.2747 37.5151C72.6059 37.345 73.8347 36.7113 74.7451 35.7253L73.7224 34.8831Z" fill="#AE090E"/>
<path d="M70.2594 33.9619C70.2594 33.9619 70.2067 35.9472 70.7557 36.9173L70.3458 37.564C69.4595 36.5553 68.9563 35.2668 68.9246 33.9243L70.2594 33.9619Z" fill="#AE090E"/>
<path d="M79.024 24.0504C78.5201 26.0507 77.9298 29.7393 79.2834 31.1944C79.2834 31.1944 74.2412 32.5706 70.955 37.0826C69.451 32.3412 72.9591 30.7207 72.9591 30.7207C75.2564 30.3447 75.2865 28.6677 74.9707 27.0584L79.024 24.0504Z" fill="#FFB573"/>
<path opacity="0.2" d="M77.3732 25.28L74.9744 27.066C75.0519 27.4374 75.0972 27.8148 75.1097 28.194C75.982 28.1339 77.2228 27.2728 77.3657 26.3742C77.4316 26.0127 77.4342 25.6424 77.3732 25.28Z" fill="black"/>
<path d="M81.3627 20.4861C80.3964 23.7273 80.058 25.1222 78.0238 26.3969C74.9632 28.3107 71.2558 26.3405 71.2333 22.8587C71.2333 19.7229 72.8012 14.9627 76.2867 14.4438C79.7722 13.9249 82.3441 17.2413 81.3627 20.4861Z" fill="#FFB573"/>
<path d="M78.8359 15.7522C77.9222 18.8768 78.7043 22.1442 80.5693 22.5202C83.1599 21.5539 83.0321 18.6775 82.3703 17.3615C81.7086 16.0455 79.3623 13.9512 78.8359 15.7522Z" fill="#263238"/>
<path d="M80.2534 21.366C78.8133 21.8435 78.535 22.8098 78.535 22.8098C78.535 22.8098 79.5239 22.1104 80.4714 22.242C80.3339 21.9701 80.2594 21.6707 80.2534 21.366Z" fill="#263238"/>
<path d="M76.6551 20.1815C76.5912 20.4485 76.3994 20.6289 76.2227 20.5876C76.046 20.5462 75.952 20.2868 76.0159 20.0198C76.0798 19.7529 76.2716 19.5686 76.4483 19.6137C76.6251 19.6589 76.704 19.9145 76.6551 20.1815Z" fill="#263238"/>
<path d="M73.3199 19.388C73.256 19.655 73.0642 19.8355 72.8875 19.7903C72.7108 19.7452 72.6168 19.4933 72.6807 19.2226C72.7446 18.9519 72.9364 18.7751 73.1131 18.8203C73.2898 18.8654 73.3876 19.1173 73.3199 19.388Z" fill="#263238"/>
<path d="M73.1952 18.8538L72.5906 18.5045C72.5906 18.5045 72.8046 19.0903 73.1952 18.8538Z" fill="#263238"/>
<path d="M73.9517 19.8243C73.5695 20.3749 73.1112 20.8686 72.5906 21.2907C72.7049 21.4232 72.8463 21.5297 73.0052 21.603C73.1641 21.6762 73.3368 21.7147 73.5118 21.7156L73.9517 19.8243Z" fill="#ED893E"/>
<path d="M81.3815 23.7385C81.1824 23.9722 80.9353 24.1604 80.6569 24.2902C80.3786 24.4199 80.0756 24.4882 79.7685 24.4905C78.9827 24.4679 78.8473 23.5655 79.2797 22.8248C79.6557 22.1555 80.5431 21.3622 81.2274 21.7419C81.9117 22.1217 81.9155 23.1294 81.3815 23.7385Z" fill="#FFB573"/>
<path d="M77.2831 19.0308C77.2426 19.0108 77.2116 18.9757 77.1966 18.9331C77.1363 18.7365 77.0318 18.5563 76.891 18.4064C76.7502 18.2565 76.5769 18.1408 76.3845 18.0683C76.3429 18.0568 76.3075 18.0295 76.2857 17.9923C76.2639 17.9551 76.2575 17.9108 76.2679 17.869C76.2727 17.8483 76.2816 17.8289 76.2942 17.8119C76.3068 17.7949 76.3228 17.7806 76.3411 17.77C76.3595 17.7594 76.3798 17.7527 76.4008 17.7504C76.4219 17.748 76.4432 17.75 76.4634 17.7562C76.7095 17.8418 76.9319 17.9841 77.1128 18.1716C77.2938 18.359 77.4281 18.5864 77.505 18.8353C77.5126 18.8553 77.5159 18.8766 77.5149 18.8979C77.5138 18.9192 77.5083 18.94 77.4988 18.9591C77.4892 18.9782 77.4758 18.9951 77.4594 19.0087C77.443 19.0224 77.424 19.0325 77.4034 19.0383C77.3638 19.0511 77.3209 19.0484 77.2831 19.0308Z" fill="#263238"/>
<path d="M72.1092 17.7864C72.0665 17.7878 72.0248 17.773 71.9926 17.745C71.963 17.7142 71.9464 17.6731 71.9464 17.6303C71.9464 17.5876 71.963 17.5465 71.9926 17.5157C72.1602 17.3218 72.3722 17.1714 72.6105 17.0771C72.8488 16.9828 73.1064 16.9475 73.3612 16.9742C73.4042 16.9816 73.4426 17.0053 73.4685 17.0403C73.4944 17.0753 73.5058 17.119 73.5004 17.1622C73.4939 17.2046 73.4708 17.2427 73.4363 17.2681C73.4017 17.2934 73.3585 17.3041 73.3161 17.2976C73.1144 17.2775 72.9108 17.3067 72.7228 17.3827C72.5348 17.4586 72.3681 17.5791 72.237 17.7337C72.2208 17.7512 72.2009 17.765 72.1789 17.7741C72.1568 17.7831 72.133 17.7873 72.1092 17.7864Z" fill="#263238"/>
<path d="M76.5228 19.651L75.9182 19.298C75.9182 19.298 76.1323 19.8875 76.5228 19.651Z" fill="#263238"/>
<path d="M76.3281 46.3473L73.3201 45.7645L73.6585 49.22C73.6585 49.22 75.9145 49.1222 77.2004 48.092L77.3207 47.6408C77.1816 46.8925 77.0124 46.618 76.3281 46.3473Z" fill="#FFB573"/>
<path d="M71.5114 47.2384L71.8611 48.7011C71.9122 48.9111 72.0402 49.0944 72.2197 49.2148C72.3993 49.3352 72.6174 49.384 72.8312 49.3516L73.6734 49.22L73.335 45.7645L72.0528 46.2308C71.8549 46.3033 71.6904 46.446 71.5906 46.6317C71.4908 46.8174 71.4626 47.0333 71.5114 47.2384Z" fill="#FFB573"/>
<path d="M83.0546 33.9919C83.9686 35.7423 84.7662 37.551 85.4422 39.4063C85.7806 40.3351 86.1002 41.2863 86.3559 42.2602C86.6348 43.2692 86.8235 44.301 86.9199 45.3434C86.9425 45.6179 86.9538 45.8999 86.9575 46.1856V46.2871V46.4488C86.9484 46.5596 86.9283 46.6692 86.8974 46.7759C86.8421 46.9832 86.7559 47.181 86.6417 47.3625C86.4675 47.6328 86.2397 47.8644 85.9724 48.0431C85.6455 48.2606 85.2846 48.422 84.9046 48.5206C84.6166 48.6002 84.3241 48.6617 84.0285 48.7048C83.0036 48.8337 81.9694 48.8727 80.9378 48.8214C78.9818 48.7311 77.0352 48.4974 75.1135 48.122C74.9054 48.0876 74.7178 47.9759 74.5884 47.8093C74.4589 47.6427 74.397 47.4334 74.4151 47.2231C74.4331 47.0129 74.5297 46.8172 74.6857 46.6751C74.8416 46.533 75.0454 46.4548 75.2564 46.4563C77.1364 46.4225 79.039 46.3736 80.8701 46.2345C81.7467 46.1737 82.6177 46.0481 83.4758 45.8585C83.6509 45.818 83.8231 45.7652 83.9909 45.7006C84.074 45.6776 84.151 45.6365 84.2165 45.5803C84.1443 45.623 84.0847 45.6839 84.0435 45.757C83.9935 45.8362 83.9555 45.9223 83.9307 46.0127C83.9174 46.0634 83.9074 46.1149 83.9006 46.1668C83.8987 46.1919 83.8987 46.217 83.9006 46.242C83.9006 46.0503 83.8668 45.866 83.8367 45.6555C83.5079 43.9128 82.9949 42.21 82.3064 40.5757C81.6258 38.8799 80.8475 37.1541 80.0504 35.526V35.4959C79.8888 35.1025 79.8813 34.6626 80.0295 34.2639C80.1776 33.8651 80.4705 33.5368 80.8498 33.3443C81.2291 33.1518 81.667 33.1092 82.0763 33.2251C82.4856 33.3409 82.8362 33.6067 83.0584 33.9694L83.0546 33.9919Z" fill="#FFB573"/>
<path d="M81.2161 31.5818C83.3706 31.9803 84.3294 33.9167 85.8935 37.782C85.416 40.3839 81.5921 41.7526 81.5921 41.7526C81.5921 41.7526 79.3962 37.861 78.9601 35.7967C78.5239 33.7325 79.0428 31.1795 81.2161 31.5818Z" fill="#E0E0E0"/>
<path d="M76.6627 123.48C76.6451 123.43 76.6109 123.387 76.5657 123.359C76.5206 123.331 76.4673 123.319 76.4145 123.326L73.8652 123.288C73.6044 123.271 73.3439 123.327 73.1132 123.45C71.9462 124.179 70.6354 124.647 69.2705 124.822C68.7291 124.905 68.9735 125.819 70.2519 125.834C72.3612 125.856 72.7448 125.698 74.5458 125.717C76.0836 125.736 75.3504 125.804 76.5724 125.834C76.8657 125.834 77.1064 125.65 77.0688 125.458L76.6627 123.48Z" fill="#263238"/>
<path d="M85.4573 123.48C85.4392 123.43 85.4048 123.388 85.3599 123.36C85.3149 123.332 85.2618 123.32 85.2092 123.326L83.1299 123.288C82.869 123.27 82.6081 123.326 82.3779 123.45C81.6259 123.973 81.7312 124.578 80.0166 124.822C79.4752 124.905 79.7421 125.819 81.0205 125.834C83.1299 125.856 83.0021 125.717 83.8593 125.717C84.7166 125.717 84.1902 125.804 85.416 125.834C85.7093 125.834 85.9462 125.649 85.901 125.458L85.4573 123.48Z" fill="#263238"/>
<path d="M72.335 35.4621C73.4028 35.5072 75.3618 36.3833 75.9897 37.3195C76.877 36.3983 80.3438 34.2589 80.4039 31.3599C79.9796 30.9519 79.4449 30.6774 78.8661 30.5703C78.8661 30.5703 74.2413 32.8075 72.335 35.4621Z" fill="#FAFAFA"/>
<path d="M70.6052 35.3116C70.6052 35.3116 70.3157 32.9692 73.1508 30.6944C72.865 30.4612 71.7445 30.7244 71.7445 30.7244C71.7445 30.7244 68.4319 32.1495 68.5297 35.8381C69.1267 35.3991 69.8712 35.2103 70.6052 35.3116Z" fill="#FAFAFA"/>
<path d="M70.1842 36.3044C69.7744 36.4961 69.6127 37.8309 70.1842 38.143C70.7557 38.4551 70.6993 37.1805 71.0302 36.7443C71.3611 36.3081 70.9024 35.9697 70.1842 36.3044Z" fill="#AE090E"/>
<path d="M70.688 36.8232C70.3947 37.1992 70.7745 38.4776 71.4062 38.4739C72.0378 38.4701 71.4926 37.3459 71.6167 36.7894C71.7408 36.2329 71.1881 36.1615 70.688 36.8232Z" fill="#AE090E"/>
<path d="M70.7744 37.7745C70.0713 36.6879 70.0224 42.4144 71.7257 44.6704C71.6129 42.4482 72.8048 39.2973 70.7744 37.7745Z" fill="#AE090E"/>
<path d="M70.7106 37.7257C70.3985 36.6203 68.8306 41.4631 69.6991 43.8282C70.1917 41.9143 72.0303 39.5531 70.7106 37.7257Z" fill="#AE090E"/>
<path d="M75.9519 22.7495C76.1158 22.6782 76.273 22.5927 76.4219 22.4939C76.4304 22.4855 76.437 22.4755 76.4416 22.4645C76.4461 22.4536 76.4485 22.4418 76.4485 22.4299C76.4485 22.4181 76.4461 22.4063 76.4416 22.3953C76.437 22.3844 76.4304 22.3744 76.4219 22.366C76.4063 22.346 76.3837 22.3326 76.3587 22.3284C76.3336 22.3242 76.3079 22.3296 76.2866 22.3435C75.9513 22.5683 75.5698 22.7151 75.1703 22.773C74.7707 22.8309 74.3633 22.7985 73.9779 22.6781C73.9666 22.6731 73.9544 22.6704 73.942 22.6702C73.9296 22.67 73.9173 22.6722 73.9057 22.6767C73.8942 22.6813 73.8837 22.688 73.8748 22.6967C73.8659 22.7053 73.8588 22.7156 73.8539 22.727C73.8454 22.7504 73.8466 22.7763 73.8572 22.7988C73.8677 22.8214 73.8868 22.8388 73.9103 22.8473C74.5796 23.0676 75.3067 23.0327 75.9519 22.7495Z" fill="#263238"/>
<path d="M65.0405 25.4004H45.8307V26.0246H65.0405V25.4004Z" fill="#AE090E"/>
<path d="M64.5818 26.0245H46.2894L47.0941 26.4607H63.7772L64.5818 26.0245Z" fill="#AE090E"/>
<path opacity="0.2" d="M64.5818 26.0245H46.2894L47.0941 26.4607H63.7772L64.5818 26.0245Z" fill="black"/>
<path d="M51.9858 8.67959C51.8734 8.6786 51.7659 8.63353 51.6864 8.55406C51.607 8.47459 51.5619 8.36709 51.5609 8.25471V6.82967C51.5619 6.71729 51.607 6.60978 51.6864 6.53031C51.7659 6.45085 51.8734 6.40577 51.9858 6.40479C52.0982 6.40577 52.2057 6.45085 52.2851 6.53031C52.3646 6.60978 52.4097 6.71729 52.4107 6.82967V8.25471C52.4097 8.36709 52.3646 8.47459 52.2851 8.55406C52.2057 8.63353 52.0982 8.6786 51.9858 8.67959Z" fill="#263238"/>
<path d="M52.67 6.74324V6.55524C52.67 6.3725 52.5219 6.22437 52.3392 6.22437H51.6323C51.4495 6.22437 51.3014 6.3725 51.3014 6.55524V6.74324C51.3014 6.92598 51.4495 7.07412 51.6323 7.07412H52.3392C52.5219 7.07412 52.67 6.92598 52.67 6.74324Z" fill="#263238"/>
<path d="M52.6664 11.774V7.70948C52.6664 7.66525 52.6491 7.62278 52.6181 7.59115C52.5872 7.55952 52.5451 7.54127 52.5009 7.54028H51.4707C51.4265 7.54127 51.3844 7.55952 51.3535 7.59115C51.3225 7.62278 51.3052 7.66525 51.3052 7.70948V11.774C51.3054 12.0795 51.2408 12.3815 51.1157 12.6602C50.9906 12.9389 50.8079 13.1879 50.5796 13.3908C50.3521 13.5953 50.17 13.8451 50.045 14.1242C49.92 14.4033 49.8549 14.7056 49.8539 15.0114V25.4379H54.114V15.0114C54.1137 14.7055 54.0489 14.403 53.9239 14.1238C53.7988 13.8445 53.6163 13.5948 53.3883 13.3908C53.161 13.1873 52.9793 12.938 52.8549 12.6594C52.7305 12.3808 52.6662 12.0791 52.6664 11.774Z" fill="#AE090E"/>
<path d="M54.1139 16.2448H51.3014V22.9864H54.1139V16.2448Z" fill="#E0E0E0"/>
<path d="M58.1064 25.4004H57.5995C57.7683 25.4118 57.9376 25.4118 58.1064 25.4004Z" fill="#AE090E"/>
<path d="M61.1709 25.4004H60.6602C60.8302 25.4117 61.0008 25.4117 61.1709 25.4004Z" fill="#AE090E"/>
<path opacity="0.2" d="M57.4264 17.4479V19.1587C57.4264 20.5198 58.201 21.6516 59.1823 21.7907V24.7987C59.1823 25.2612 58.7311 25.3928 58.3814 25.4228H60.3855C60.0358 25.3928 59.5846 25.2612 59.5846 24.7987V21.7907C60.566 21.6553 61.3406 20.5236 61.3406 19.1587V17.4479H57.4264Z" fill="#AE090E"/>
<path d="M80.7233 15.8387C79.2193 16.4779 74.1809 16.6734 72.2069 16.2448C74.2486 13.3609 78.8358 12.5149 80.7233 15.8387Z" fill="#263238"/>
<path d="M85.4648 26.141C85.4502 26.1407 85.4359 26.1372 85.4229 26.1307C85.4099 26.1242 85.3985 26.1149 85.3896 26.1034C85.3407 26.0357 84.2315 24.4039 84.2089 20.0348C84.2089 18.2112 83.6487 16.7448 82.7049 16.004C82.4597 15.8014 82.1704 15.6591 81.8602 15.5886C81.55 15.5181 81.2276 15.5213 80.9189 15.598C80.9068 15.6007 80.8943 15.601 80.8821 15.5989C80.8699 15.5967 80.8582 15.5922 80.8477 15.5856C80.8373 15.579 80.8282 15.5703 80.821 15.5602C80.8139 15.5501 80.8088 15.5386 80.8061 15.5265C80.8034 15.5144 80.8031 15.5019 80.8052 15.4897C80.8073 15.4775 80.8118 15.4658 80.8185 15.4553C80.8251 15.4448 80.8337 15.4358 80.8439 15.4286C80.854 15.4215 80.8655 15.4164 80.8776 15.4137C81.2131 15.3339 81.5624 15.332 81.8988 15.4083C82.2351 15.4845 82.5495 15.6369 82.8177 15.8536C83.8141 16.632 84.3894 18.1548 84.4007 20.031C84.4232 24.3324 85.5287 25.9793 85.5287 25.9944C85.5359 26.0045 85.541 26.0159 85.5438 26.028C85.5466 26.0401 85.5469 26.0526 85.5448 26.0649C85.5427 26.0771 85.5382 26.0888 85.5316 26.0993C85.5249 26.1098 85.5163 26.1188 85.5061 26.126C85.4936 26.1338 85.4795 26.139 85.4648 26.141Z" fill="#263238"/>
<path d="M112.522 4.00598C113.571 5.4423 113.567 7.6795 113.21 8.89398C111.33 8.04046 111.623 5.58894 111.623 5.58894L112.522 4.00598Z" fill="#263238"/>
<path d="M118.143 21.7833L119.226 22.9752L120.354 24.186C121.106 24.9868 121.858 25.7689 122.632 26.5209C123.008 26.8969 123.384 27.2729 123.787 27.6038C124.189 27.9347 124.539 28.2881 124.933 28.5927C125.328 28.8972 125.686 29.168 126.035 29.4011C126.298 29.5777 126.575 29.7335 126.862 29.8673L126.287 29.7771C126.116 29.7565 125.944 29.795 125.798 29.8861C125.798 29.8861 125.889 29.8861 126.016 29.8109C126.366 29.597 126.69 29.3448 126.983 29.0589C127.753 28.3274 128.472 27.5448 129.137 26.7164C129.855 25.8554 130.555 24.938 131.25 24.0092C131.946 23.0805 132.642 22.1292 133.326 21.193L133.36 21.1516C133.599 20.8354 133.942 20.6132 134.329 20.5238C134.716 20.4344 135.121 20.4834 135.476 20.6623C135.83 20.8412 136.11 21.1387 136.268 21.5029C136.425 21.8671 136.45 22.275 136.338 22.6556C135.957 23.844 135.516 25.0123 135.018 26.1562C134.525 27.2842 133.98 28.4122 133.363 29.5402C132.724 30.7134 131.984 31.8292 131.153 32.8753C130.657 33.4937 130.097 34.0583 129.483 34.5598C129.076 34.8888 128.63 35.1666 128.156 35.387C127.459 35.7119 126.695 35.869 125.926 35.8457C125.784 35.8404 125.643 35.8215 125.505 35.7893L125.347 35.7555C124.523 35.5581 123.727 35.2614 122.975 34.8719C122.345 34.5509 121.735 34.1905 121.151 33.7928C120.079 33.0712 119.056 32.2785 118.09 31.4202C117.143 30.5968 116.263 29.7357 115.409 28.8596C114.988 28.416 114.567 27.9723 114.165 27.5136C113.763 27.0548 113.375 26.6074 112.95 26.0848C112.476 25.3961 112.274 24.5562 112.382 23.7271C112.49 22.898 112.902 22.1383 113.537 21.5946C114.172 21.0509 114.986 20.7617 115.822 20.7826C116.658 20.8036 117.457 21.1333 118.064 21.7081L118.143 21.7833Z" fill="#E0E0E0"/>
<path d="M135.01 23.2234L138.36 23.385L137.274 18.873C137.274 18.873 134.157 19.1024 133.657 20.7042C133.604 20.8828 133.615 21.0739 133.687 21.2456L134.303 22.7233C134.362 22.8651 134.459 22.9874 134.584 23.0759C134.709 23.1645 134.857 23.2156 135.01 23.2234Z" fill="#FF8B7B"/>
<path d="M141.35 20.7079L140.703 19.2039C140.577 18.9124 140.352 18.6747 140.068 18.533C139.784 18.3913 139.459 18.3546 139.15 18.4294L137.27 18.8918L138.357 23.4038L140.613 22.4939C140.78 22.4277 140.933 22.3283 141.062 22.2018C141.19 22.0753 141.292 21.9241 141.36 21.7574C141.429 21.5907 141.464 21.4119 141.462 21.2316C141.46 21.0513 141.422 20.8732 141.35 20.7079Z" fill="#FF8B7B"/>
<path d="M110.221 85.707C106.664 70.0616 104.464 51.1977 104.464 51.1977L119.049 50.9646C119.049 50.9646 118.846 76.386 118.876 87.0343C118.914 98.1075 119.681 122.476 119.681 122.476H115.255C115.255 122.476 109.544 99.3934 110.221 85.707Z" fill="#263238"/>
<path d="M109.085 64.1207L106.776 67.5423C107.465 71.8137 108.28 76.5174 109.232 81.1272C109.63 74.0434 109.563 65.8127 109.085 64.1207Z" fill="black"/>
<path d="M125.584 124.646C125.584 124.646 119.489 123.209 119.03 122.243H115.646L115.669 125.826H117.759L118.079 125.495L118.609 125.826C120.301 125.826 124.798 125.759 125.862 125.379C125.883 125.243 125.869 125.104 125.82 124.975C125.771 124.847 125.69 124.733 125.584 124.646Z" fill="#263238"/>
<path d="M96.6545 85.2671C98.3427 69.5315 98.2901 59.0186 100.347 51.2654L113.627 51.0662C113.627 51.0662 108.096 76.025 105.528 86.4102C102.96 96.7953 98.5646 122.469 98.5646 122.469H94.4662C94.4662 122.469 93.1765 97.4345 96.6545 85.2671Z" fill="#263238"/>
<path d="M99.2941 54.3298C99.0008 56.2098 97.9556 67.3319 96.8727 71.3814C105.727 75.3106 119.263 73.7653 119.681 71.216C119.557 66.4934 119.305 54.3298 119.305 54.3298H99.2941Z" fill="#E0E0E0"/>
<path opacity="0.1" d="M99.7866 56.394C100.405 57.396 101.152 58.3125 102.009 59.12C102.009 59.12 100.099 58.7779 99.7866 56.394Z" fill="black"/>
<path opacity="0.1" d="M117.586 59.0148C118.094 58.2577 118.506 57.4405 118.812 56.582C118.812 56.582 118.899 58.5034 117.586 59.0148Z" fill="black"/>
<path opacity="0.1" d="M99.8693 57.8115C100.074 58.5646 100.376 59.2877 100.768 59.9622C100.41 59.7447 100.13 59.4194 99.969 59.033C99.8075 58.6466 99.7726 58.219 99.8693 57.8115Z" fill="black"/>
<path d="M102.385 124.646C102.385 124.646 98.5835 123.209 98.1474 122.243H94.7634L94.6957 125.826H97.4668L97.7939 125.495L98.3166 125.826C100.009 125.826 101.569 125.759 102.644 125.379C102.67 125.245 102.659 125.106 102.614 124.977C102.568 124.848 102.489 124.734 102.385 124.646Z" fill="#263238"/>
<path d="M99.858 19.8732C104.55 19.2904 111.251 19.3468 115.744 20.1213C116.867 20.3249 117.897 20.8762 118.689 21.6974C119.481 22.5186 119.995 23.568 120.158 24.6972C121.102 31.484 120.29 43.3431 119.688 55.2811C109.423 58.7929 98.5947 55.2322 98.5947 55.2322C98.2187 52.8258 99.0609 44.9336 99.6249 40.7224C98.7789 36.372 96.9929 31.39 95.7972 25.6109C95.6521 24.9644 95.6443 24.2947 95.7743 23.645C95.9043 22.9953 96.1693 22.3801 96.5521 21.8393C96.9348 21.2985 97.4269 20.844 97.9963 20.5053C98.5658 20.1666 99.2001 19.9513 99.858 19.8732Z" fill="#263238"/>
<path opacity="0.1" d="M99.858 19.8732C104.55 19.2904 111.251 19.3468 115.744 20.1213C116.867 20.3249 117.897 20.8762 118.689 21.6974C119.481 22.5186 119.995 23.568 120.158 24.6972C121.102 31.484 120.29 43.3431 119.688 55.2811C109.423 58.7929 98.5947 55.2322 98.5947 55.2322C98.2187 52.8258 99.0609 44.9336 99.6249 40.7224C98.7789 36.372 96.9929 31.39 95.7972 25.6109C95.6521 24.9644 95.6443 24.2947 95.7743 23.645C95.9043 22.9953 96.1693 22.3801 96.5521 21.8393C96.9348 21.2985 97.4269 20.844 97.9963 20.5053C98.5658 20.1666 99.2001 19.9513 99.858 19.8732Z" fill="white"/>
<path d="M104.502 10.9131L109.841 15.2935C109.149 17.1321 108.931 19.0535 111.946 19.7792C112.698 20.7756 111.57 22.524 110.232 23.2045C107.066 22.4826 105.242 21.6328 104.013 19.9446C104.4 18.6211 105.017 13.6316 104.502 10.9131Z" fill="#FF8B7B"/>
<path opacity="0.2" d="M106.728 12.7405L109.841 15.2898C109.672 15.7148 109.546 16.1557 109.465 16.6058C108.258 16.6922 106.581 15.4778 106.506 14.3723C106.478 13.8193 106.554 13.2661 106.728 12.7405Z" fill="black"/>
<path d="M103.735 7.92767C104.223 11.2778 104.336 13.2631 106.182 14.8348C108.961 17.1998 112.992 15.2747 113.518 11.8268C113.988 8.73232 113.112 3.77287 109.702 2.73511C108.945 2.50493 108.142 2.47082 107.369 2.63596C106.596 2.80111 105.877 3.1601 105.28 3.67923C104.684 4.19836 104.229 4.86059 103.959 5.60373C103.688 6.34688 103.611 7.14656 103.735 7.92767Z" fill="#FF8B7B"/>
<path d="M103.705 9.47307C104.049 9.84612 104.493 10.1117 104.985 10.2378C105.477 10.3638 105.994 10.3451 106.476 10.1837C105.671 9.36779 106.453 6.38235 105.648 5.16787C107.205 5.47619 113.266 6.35604 113.845 4.2542C114.473 1.9982 111.965 0.197154 110.559 0.0279541C110.973 0.967954 110.935 1.64851 109.393 1.34395C107.852 1.03939 101.497 -0.427006 102.201 2.55091C100.155 2.55091 100.016 5.52883 101.512 6.95387C102.332 7.71175 103.067 8.55644 103.705 9.47307Z" fill="#263238"/>
<path d="M102.577 2.40801C101.351 2.10345 101.734 0.975447 102.009 0.858887C100.862 1.13713 100.445 2.26513 101.828 2.78401C103.212 3.30289 102.577 2.40801 102.577 2.40801Z" fill="#263238"/>
<path d="M102.791 9.98438C102.905 10.3515 103.091 10.6923 103.337 10.9872C103.584 11.2822 103.886 11.5253 104.227 11.7027C105.148 12.1727 105.818 11.3981 105.731 10.4281C105.66 9.55198 105.1 8.25478 104.092 8.17206C103.87 8.161 103.649 8.2057 103.449 8.30207C103.25 8.39844 103.077 8.5434 102.948 8.72369C102.818 8.90398 102.736 9.11384 102.709 9.33408C102.681 9.55432 102.71 9.7779 102.791 9.98438Z" fill="#FF8B7B"/>
<path d="M108.438 8.0479C108.461 8.32238 108.626 8.53294 108.814 8.5179C109.002 8.50286 109.123 8.26222 109.1 7.9915C109.078 7.72078 108.912 7.50646 108.724 7.5215C108.536 7.53654 108.416 7.77342 108.438 8.0479Z" fill="#263238"/>
<path d="M111.717 7.96907C111.74 8.24355 111.905 8.45411 112.093 8.43531C112.281 8.41651 112.398 8.18338 112.375 7.9089C112.353 7.63442 112.187 7.42763 111.999 7.44267C111.811 7.45771 111.695 7.69459 111.717 7.96907Z" fill="#263238"/>
<path d="M111.052 8.3374C111.447 9.14559 111.953 9.89475 112.556 10.5633C112.108 11.0596 111.266 10.9393 111.266 10.9393L111.052 8.3374Z" fill="#FF5652"/>
<path d="M107.931 7.17556C107.905 7.18278 107.878 7.18278 107.852 7.17556C107.832 7.16812 107.813 7.15667 107.798 7.1419C107.782 7.12713 107.77 7.10936 107.762 7.08966C107.753 7.06996 107.749 7.04875 107.749 7.02732C107.749 7.00588 107.753 6.98468 107.762 6.965C107.852 6.72359 107.998 6.50704 108.188 6.33316C108.379 6.15929 108.607 6.03305 108.856 5.96484C108.898 5.95636 108.942 5.96507 108.978 5.98904C109.014 6.01302 109.039 6.0503 109.048 6.09268C109.056 6.13506 109.047 6.17907 109.023 6.21503C108.999 6.251 108.962 6.27596 108.92 6.28443C108.723 6.34012 108.542 6.44178 108.393 6.58103C108.243 6.72028 108.128 6.89313 108.059 7.08532C108.047 7.10995 108.029 7.13115 108.006 7.14693C107.984 7.16272 107.958 7.17256 107.931 7.17556Z" fill="#263238"/>
<path d="M113.62 6.73949C113.593 6.73963 113.566 6.73279 113.542 6.71962C113.518 6.70645 113.499 6.6874 113.484 6.66429C113.384 6.48853 113.244 6.33918 113.074 6.22866C112.905 6.11814 112.712 6.04964 112.511 6.02885C112.489 6.02836 112.468 6.0237 112.449 6.01512C112.429 6.00654 112.412 5.99421 112.397 5.97885C112.383 5.96349 112.371 5.94538 112.363 5.92558C112.356 5.90577 112.352 5.88465 112.353 5.86341C112.355 5.82019 112.373 5.77946 112.405 5.74994C112.437 5.72042 112.479 5.70446 112.522 5.70549C112.777 5.72873 113.022 5.81251 113.238 5.94986C113.454 6.08721 113.634 6.27414 113.763 6.49509C113.784 6.53177 113.79 6.57524 113.781 6.61653C113.771 6.65782 113.746 6.69376 113.71 6.71693C113.683 6.73488 113.652 6.74287 113.62 6.73949Z" fill="#263238"/>
<path d="M104.013 19.9446C104.013 19.9446 109.491 28.2693 111.574 34.1424C113.627 27.2503 113.864 21.7344 111.95 19.7792C111.334 20.5575 108.852 21.6103 104.013 19.9446Z" fill="#E0E0E0"/>
<path d="M102.144 26.0959L101.614 27.5999L101.088 29.164C100.738 30.2056 100.418 31.2508 100.121 32.2773C99.9709 32.7924 99.8393 33.3038 99.719 33.8076C99.5987 34.3115 99.4821 34.8116 99.3994 35.2891C99.3167 35.7666 99.2527 36.2291 99.2114 36.6427C99.1899 36.9594 99.1899 37.2772 99.2114 37.594L99.0159 37.045C98.8579 36.748 98.6963 36.669 98.6887 36.669C98.6812 36.669 98.7414 36.7442 98.8579 36.8269C99.2079 37.0333 99.58 37.1998 99.9671 37.3232C100.967 37.6592 101.988 37.928 103.024 38.1279C104.126 38.346 105.261 38.5039 106.408 38.6919C107.555 38.8799 108.735 39.0115 109.871 39.1732H109.924C110.32 39.2299 110.684 39.4252 110.95 39.7244C111.216 40.0237 111.368 40.4075 111.379 40.808C111.389 41.2084 111.257 41.5996 111.007 41.9122C110.756 42.2248 110.403 42.4386 110.01 42.5158C108.785 42.7484 107.549 42.919 106.307 43.0272C105.066 43.14 103.814 43.1964 102.547 43.1889C101.21 43.1864 99.877 43.0694 98.5609 42.8392C97.7881 42.695 97.0322 42.4719 96.3049 42.1736C95.8204 41.9739 95.363 41.7136 94.9438 41.3991C94.3259 40.9426 93.8237 40.3477 93.4774 39.662C93.4135 39.5343 93.3619 39.4008 93.3232 39.2634L93.2819 39.1092C93.0623 38.2907 92.9424 37.4486 92.9247 36.6013C92.9064 35.8947 92.9328 35.1877 93.0036 34.4844C93.1238 33.1997 93.3311 31.9247 93.624 30.668C93.891 29.4423 94.2294 28.2579 94.5941 27.0885C94.7821 26.5057 94.9701 25.9267 95.1807 25.3514C95.3912 24.7761 95.6018 24.2234 95.8612 23.603C96.2005 22.7925 96.8418 22.1458 97.6493 21.7996C98.4569 21.4534 99.3674 21.4349 100.188 21.748C101.009 22.061 101.676 22.6811 102.048 23.4771C102.42 24.2731 102.468 25.1825 102.182 26.0132L102.144 26.0959Z" fill="#E0E0E0"/>
<path d="M110.405 39.6583L113.729 40.0719L111.894 44.3244C111.894 44.3244 108.86 43.5724 108.641 41.903C108.62 41.7184 108.664 41.5321 108.766 41.3766L109.623 40.0268C109.705 39.8979 109.822 39.795 109.961 39.7298C110.099 39.6646 110.253 39.6398 110.405 39.6583Z" fill="#FF8B7B"/>
<path d="M116.222 43.2189L115.327 44.6026C115.153 44.8685 114.891 45.0643 114.587 45.1552C114.282 45.2461 113.956 45.2261 113.665 45.0989L111.894 44.3243L113.729 40.0718L115.8 41.3539C115.952 41.4475 116.083 41.5703 116.187 41.7153C116.29 41.8602 116.364 42.0243 116.403 42.198C116.442 42.3716 116.446 42.5514 116.415 42.7267C116.384 42.902 116.318 43.0693 116.222 43.2189Z" fill="#FF8B7B"/>
<path d="M104.28 18.6511C103.581 18.762 102.941 19.1067 102.464 19.6287C103.953 21.6156 106.075 23.0349 108.48 23.6519C108.307 23.0766 108.826 21.3959 109.397 20.7943C107.295 20.4822 104.28 18.6511 104.28 18.6511Z" fill="#FAFAFA"/>
<path d="M110.055 18.858C110.768 18.9876 111.446 19.2656 112.044 19.674C112.044 19.674 114.15 22.024 111.668 23.3512C111.837 22.776 110.54 21.2419 109.378 20.7944C111.476 20.4823 110.055 18.858 110.055 18.858Z" fill="#FAFAFA"/>
<path d="M109.612 22.133C107.95 21.2419 105.893 20.2756 106.464 21.836C107.036 23.3964 106.28 23.9378 107.025 24.468C107.769 24.9981 109.281 23.543 109.781 23.34C110.281 23.1369 109.612 22.133 109.612 22.133Z" fill="#AE090E"/>
<path d="M110.788 22.1216C112.056 21.2681 113.642 20.3432 113.36 21.866C113.078 23.3888 113.778 23.9189 113.225 24.434C112.672 24.9492 111.251 23.5091 110.8 23.306C110.348 23.103 110.788 22.1216 110.788 22.1216Z" fill="#AE090E"/>
<path d="M109.386 22.0127C109.762 21.7871 110.679 21.5013 111.134 22.1142C111.589 22.7271 111.443 23.7536 110.815 23.8776C110.59 23.923 110.358 23.9067 110.142 23.8306C109.926 23.7544 109.735 23.6213 109.589 23.4452C109.728 23.2205 109.784 22.954 109.747 22.6921C109.71 22.4303 109.582 22.1898 109.386 22.0127Z" fill="#AE090E"/>
<path d="M98.7941 122.589L94.2332 122.717L93.9926 120.134L99.2904 120.449L98.7941 122.589Z" fill="black"/>
<path d="M119.843 122.581L114.917 122.717L114.372 120.479L119.873 119.946L119.843 122.581Z" fill="black"/>
<path d="M109.108 38.7822C106.804 38.1012 104.43 37.6911 102.031 37.5602C101.52 37.5903 101.324 49.1447 101.366 53.8711C101.366 54.5103 108.72 54.3824 110.6 54.0929C110.706 52.7731 110.728 43.14 111.217 40.1283C111.254 39.8926 111.212 39.6513 111.096 39.4428C110.98 39.2343 110.798 39.0705 110.578 38.9777C110.112 38.7899 109.606 38.7227 109.108 38.7822Z" fill="white"/>
<path d="M147.606 20.2869H126.731V20.8809H147.606V20.2869Z" fill="#AE090E"/>
<path d="M147.17 20.8809H127.167L127.934 21.2982H146.407L147.17 20.8809Z" fill="#AE090E"/>
<path opacity="0.2" d="M147.17 20.8809H127.167L127.934 21.2982H146.407L147.17 20.8809Z" fill="black"/>
<path d="M138.03 11.8945C138.03 12.065 137.981 12.2318 137.886 12.3739C137.792 12.516 137.658 12.6269 137.501 12.6927C137.344 12.7584 137.17 12.776 137.003 12.7432C136.836 12.7104 136.682 12.6287 136.561 12.5085C136.44 12.3882 136.358 12.2348 136.324 12.0676C136.291 11.9005 136.308 11.7272 136.373 11.5697C136.438 11.4121 136.548 11.2774 136.69 11.1826C136.832 11.0878 136.998 11.0372 137.169 11.0372C137.282 11.0367 137.393 11.0586 137.498 11.1014C137.602 11.1443 137.697 11.2073 137.777 11.287C137.857 11.3667 137.921 11.4613 137.964 11.5656C138.007 11.6698 138.03 11.7816 138.03 11.8945Z" fill="#AE090E"/>
<path d="M146.193 17.5306C145.613 15.7353 144.511 14.1538 143.027 12.9886L143.26 12.6915C144.804 13.9039 145.951 15.5496 146.554 17.4178L146.193 17.5306Z" fill="#AE090E"/>
<path d="M141.722 12.1238C141.301 11.8911 140.862 11.6912 140.41 11.5259L140.538 11.1725C141.008 11.3494 141.464 11.5619 141.903 11.8079L141.722 12.1238Z" fill="#AE090E"/>
<path d="M137.168 11.8944C134.904 11.8944 132.732 12.794 131.131 14.3954C129.529 15.9968 128.63 18.1687 128.63 20.4334H145.707C145.707 18.1687 144.808 15.9968 143.206 14.3954C141.605 12.794 139.433 11.8944 137.168 11.8944Z" fill="#AE090E"/>
<path opacity="0.3" d="M129.806 19.6701H132.014C132.09 19.6688 132.163 19.6411 132.222 19.5918C132.28 19.5425 132.319 19.4745 132.333 19.3994C132.777 17.0607 134.172 15.0228 136.39 13.2518C136.441 13.2114 136.476 13.1556 136.492 13.0931C136.508 13.0305 136.503 12.9644 136.478 12.905C136.453 12.8455 136.409 12.7958 136.353 12.7634C136.297 12.731 136.232 12.7177 136.168 12.7254C134.491 12.9469 132.931 13.7083 131.724 14.8947C130.517 16.0811 129.729 17.628 129.479 19.3017C129.473 19.348 129.477 19.395 129.491 19.4396C129.505 19.4842 129.528 19.5253 129.559 19.5602C129.59 19.5951 129.628 19.623 129.671 19.6419C129.714 19.6609 129.76 19.6705 129.806 19.6701Z" fill="white"/>
<path d="M110.003 11.917C110.178 11.9247 110.355 11.9159 110.529 11.8907C110.552 11.8861 110.573 11.8725 110.586 11.8528C110.6 11.8331 110.605 11.8088 110.6 11.7854C110.594 11.7609 110.579 11.7394 110.559 11.7249C110.538 11.7104 110.513 11.7039 110.488 11.7065C110.095 11.7648 109.694 11.7336 109.315 11.6151C108.936 11.4966 108.589 11.2939 108.299 11.0221C108.291 11.0131 108.281 11.006 108.269 11.0011C108.258 10.9962 108.246 10.9937 108.233 10.9937C108.221 10.9937 108.209 10.9962 108.198 11.0011C108.186 11.006 108.176 11.0131 108.168 11.0221C108.151 11.0401 108.142 11.0636 108.142 11.0879C108.142 11.1123 108.151 11.1357 108.168 11.1537C108.665 11.6245 109.318 11.8961 110.003 11.917Z" fill="#263238"/>
</svg>
